<svg xmlns="http://www.w3.org/2000/svg" width="1080" height="1080" viewBox="0 0 1080 1080">
  <defs>
    <linearGradient id="sky" x1="0" y1="0" x2="0" y2="1">
      <stop offset="0" stop-color="#FDEBC8"/>
      <stop offset="1" stop-color="#F6C98F"/>
    </linearGradient>
  </defs>

  <rect width="1080" height="620" fill="url(#sky)"/>
  <circle cx="880" cy="200" r="140" fill="#FFE7AC" opacity="0.55"/>
  <circle cx="880" cy="200" r="88" fill="#FFF0C2"/>

  <path d="M 0 560 Q 300 420 700 520 Q 900 566 1080 500 L 1080 780 L 0 780 Z" fill="#E0C36A"/>

  <polygon points="795,478 865,478 830,450" fill="#8F3324"/>
  <rect x="800" y="478" width="60" height="34" fill="#B5432E"/>
  <rect x="824" y="492" width="14" height="20" fill="#6E2418"/>

  <path d="M 0 780 L 0 640 Q 350 540 720 640 Q 920 692 1080 662 L 1080 780 Z" fill="#7BA05B"/>
  <line x1="140" y1="632" x2="80" y2="780" stroke="#517E3C" stroke-width="10" opacity="0.85"/>
  <line x1="280" y1="592" x2="240" y2="780" stroke="#517E3C" stroke-width="10" opacity="0.85"/>
  <line x1="420" y1="570" x2="400" y2="780" stroke="#517E3C" stroke-width="10" opacity="0.85"/>
  <line x1="560" y1="568" x2="560" y2="780" stroke="#517E3C" stroke-width="10" opacity="0.85"/>
  <line x1="700" y1="590" x2="720" y2="780" stroke="#517E3C" stroke-width="10" opacity="0.85"/>
  <line x1="840" y1="640" x2="880" y2="780" stroke="#517E3C" stroke-width="10" opacity="0.85"/>
  <line x1="960" y1="666" x2="1020" y2="780" stroke="#517E3C" stroke-width="10" opacity="0.85"/>

  <rect y="780" width="1080" height="300" fill="#0f2942"/>

  <g transform="translate(64,56) scale(0.85)">
    <path d="M 64 6 C 38 6, 18 24, 18 50 C 18 92, 64 124, 64 124 C 64 124, 110 92, 110 50 C 110 24, 90 6, 64 6 Z" fill="#36b3a8"/>
    <line x1="26" y1="50" x2="102" y2="50" stroke="white" stroke-width="1.6" opacity="0.55"/>
    <path d="M 64 10 Q 34 50 64 90" fill="none" stroke="white" stroke-width="1.6" opacity="0.55"/>
    <rect x="57" y="24" width="14" height="42" fill="white" rx="2"/>
    <rect x="43" y="38" width="42" height="14" fill="white" rx="2"/>
  </g>
  <text x="180" y="130" font-family="Helvetica Neue, Helvetica, Arial, sans-serif" font-size="46" font-weight="700" fill="#0f2942">convene.md</text>

  <text x="70" y="330" font-family="Helvetica Neue, Helvetica, Arial, sans-serif" font-size="82" font-weight="800" fill="#0f2942">Wine country.</text>
  <text x="70" y="425" font-family="Helvetica Neue, Helvetica, Arial, sans-serif" font-size="82" font-weight="800" fill="#36b3a8">Trauma care.</text>

  <text x="70" y="882" font-family="Helvetica Neue, Helvetica, Arial, sans-serif" font-size="28" font-weight="600" letter-spacing="2" fill="#36b3a8">SANTA ROSA REGIONAL TRAUMA CONFERENCE</text>
  <text x="70" y="952" font-family="Helvetica Neue, Helvetica, Arial, sans-serif" font-size="56" font-weight="700" fill="#FFFFFF">Windsor, California</text>
  <text x="70" y="1016" font-family="Helvetica Neue, Helvetica, Arial, sans-serif" font-size="40" font-weight="500" fill="#FFFFFF" opacity="0.85">August 6, 2026</text>
  <text x="1010" y="1016" font-family="Helvetica Neue, Helvetica, Arial, sans-serif" font-size="40" font-weight="700" fill="#36b3a8" text-anchor="end">convene.md</text>
</svg>
