<svg xmlns="http://www.w3.org/2000/svg" width="1080" height="1080" viewBox="0 0 1080 1080">
  <defs>
    <linearGradient id="sky" x1="0" y1="0" x2="0" y2="1">
      <stop offset="0" stop-color="#DCE6F2"/>
      <stop offset="1" stop-color="#F3D4C0"/>
    </linearGradient>
  </defs>

  <rect width="1080" height="700" fill="url(#sky)"/>
  <circle cx="200" cy="560" r="130" fill="#FFD9A0" opacity="0.5"/>
  <circle cx="200" cy="560" r="80" fill="#FFE6B8"/>

  <rect x="650" y="480" width="90" height="220" fill="#16324e"/>
  <rect x="770" y="420" width="110" height="280" fill="#16324e"/>
  <rect x="890" y="500" width="80" height="200" fill="#0f2942"/>
  <rect x="990" y="450" width="90" height="250" fill="#16324e"/>
  <rect x="560" y="540" width="70" height="160" fill="#0f2942"/>

  <rect x="900" y="300" width="22" height="400" fill="#0f2942"/>
  <ellipse cx="911" cy="330" rx="42" ry="26" fill="#0f2942"/>
  <rect x="907" y="180" width="8" height="130" fill="#0f2942"/>
  <ellipse cx="911" cy="300" rx="26" ry="12" fill="#16324e"/>

  <rect y="700" width="1080" height="80" fill="#3E8CA8"/>
  <rect x="120" y="726" width="150" height="9" rx="4.5" fill="#6FB0C6" opacity="0.6"/>
  <rect x="560" y="748" width="120" height="9" rx="4.5" fill="#6FB0C6" opacity="0.5"/>
  <rect x="880" y="722" width="140" height="9" rx="4.5" fill="#6FB0C6" opacity="0.6"/>

  <rect y="780" width="1080" height="300" fill="#0f2942"/>

  <g transform="translate(64,56) scale(0.85)">
    <path d="M 64 6 C 38 6, 18 24, 18 50 C 18 92, 64 124, 64 124 C 64 124, 110 92, 110 50 C 110 24, 90 6, 64 6 Z" fill="#36b3a8"/>
    <line x1="26" y1="50" x2="102" y2="50" stroke="white" stroke-width="1.6" opacity="0.55"/>
    <path d="M 64 10 Q 34 50 64 90" fill="none" stroke="white" stroke-width="1.6" opacity="0.55"/>
    <rect x="57" y="24" width="14" height="42" fill="white" rx="2"/>
    <rect x="43" y="38" width="42" height="14" fill="white" rx="2"/>
  </g>
  <text x="180" y="130" font-family="Helvetica Neue, Helvetica, Arial, sans-serif" font-size="46" font-weight="700" fill="#0f2942">convene.md</text>

  <text x="70" y="300" font-family="Helvetica Neue, Helvetica, Arial, sans-serif" font-size="68" font-weight="800" fill="#0f2942">Big city.</text>
  <text x="70" y="382" font-family="Helvetica Neue, Helvetica, Arial, sans-serif" font-size="68" font-weight="800" fill="#36b3a8">Bigger congress.</text>

  <text x="70" y="882" font-family="Helvetica Neue, Helvetica, Arial, sans-serif" font-size="28" font-weight="600" letter-spacing="2" fill="#36b3a8">IFSO · XXIX WORLD CONGRESS · BARIATRIC SURGERY</text>
  <text x="70" y="952" font-family="Helvetica Neue, Helvetica, Arial, sans-serif" font-size="56" font-weight="700" fill="#FFFFFF">Toronto, Canada</text>
  <text x="70" y="1016" font-family="Helvetica Neue, Helvetica, Arial, sans-serif" font-size="40" font-weight="500" fill="#FFFFFF" opacity="0.85">September 1–4, 2026</text>
  <text x="1010" y="1016" font-family="Helvetica Neue, Helvetica, Arial, sans-serif" font-size="40" font-weight="700" fill="#36b3a8" text-anchor="end">convene.md</text>
</svg>
